<mxfile host="Electron" agent="Mozilla/5.0 (Windows NT 10.0; Win64; x64) AppleWebKit/537.36 (KHTML, like Gecko) draw.io/28.0.6 Chrome/138.0.7204.100 Electron/37.2.3 Safari/537.36" version="28.0.6">
  <diagram name="Página-1" id="jKnsaDQLp6IGevHECjiU">
    <mxGraphModel dx="1426" dy="841" grid="1" gridSize="10" guides="1" tooltips="1" connect="1" arrows="1" fold="1" page="1" pageScale="1" pageWidth="827" pageHeight="1169" math="0" shadow="0">
      <root>
        <mxCell id="0" />
        <mxCell id="1" parent="0" />
        <mxCell id="3elFPOAeH255cSroFTTC-1" value="Definición del problema: objetivo, datos necesarios, métricas de evaluación" style="rounded=1;whiteSpace=wrap;html=1;absoluteArcSize=1;arcSize=14;strokeWidth=2;" vertex="1" parent="1">
          <mxGeometry x="10" y="10" width="100" height="100" as="geometry" />
        </mxCell>
        <mxCell id="3elFPOAeH255cSroFTTC-2" value="Recolección y preparación de datos: recolección desde fuentes disponibles, limpieza de datos, codificación de variables categóricas, tratamiento de outliers, reducción de colinearidad" style="rounded=1;whiteSpace=wrap;html=1;absoluteArcSize=1;arcSize=14;strokeWidth=2;" vertex="1" parent="1">
          <mxGeometry x="170" y="10" width="160" height="100" as="geometry" />
        </mxCell>
        <mxCell id="3elFPOAeH255cSroFTTC-3" value="Análisis exploratorio: relevancia de variables, comportamiento de variables respecto a objetivo, evolución en el tiempo, análisis de series de tiempo, creación de variables temporales" style="rounded=1;whiteSpace=wrap;html=1;absoluteArcSize=1;arcSize=14;strokeWidth=2;" vertex="1" parent="1">
          <mxGeometry x="390" y="10" width="170" height="100" as="geometry" />
        </mxCell>
        <mxCell id="3elFPOAeH255cSroFTTC-4" value="Selección de modelo y técnica de aprendizaje: Regresión lineal en series de tiempo." style="rounded=1;whiteSpace=wrap;html=1;absoluteArcSize=1;arcSize=14;strokeWidth=2;" vertex="1" parent="1">
          <mxGeometry x="620" y="10" width="170" height="100" as="geometry" />
        </mxCell>
        <mxCell id="3elFPOAeH255cSroFTTC-5" value="División del conjunto de datos: Validación cruzada en ventanas de tiempo (creciente para conjunto de datos grande o móvil para conjunto de datos pequeño)." style="rounded=1;whiteSpace=wrap;html=1;absoluteArcSize=1;arcSize=14;strokeWidth=2;" vertex="1" parent="1">
          <mxGeometry x="10" y="170" width="160" height="100" as="geometry" />
        </mxCell>
        <mxCell id="3elFPOAeH255cSroFTTC-6" value="Entrenamiento y ajuste del modelo, con conjuntos de datos definidos en paso anterior." style="rounded=1;whiteSpace=wrap;html=1;absoluteArcSize=1;arcSize=14;strokeWidth=2;" vertex="1" parent="1">
          <mxGeometry x="230" y="170" width="100" height="100" as="geometry" />
        </mxCell>
        <mxCell id="3elFPOAeH255cSroFTTC-7" value="Evaluación del modelo, según métricas definidas en definición del problema." style="rounded=1;whiteSpace=wrap;html=1;absoluteArcSize=1;arcSize=14;strokeWidth=2;" vertex="1" parent="1">
          <mxGeometry x="390" y="170" width="100" height="100" as="geometry" />
        </mxCell>
        <mxCell id="3elFPOAeH255cSroFTTC-8" value="Implementación y monitoreo del modelo, integrándolo al sistemadel cliente." style="rounded=1;whiteSpace=wrap;html=1;absoluteArcSize=1;arcSize=14;strokeWidth=2;" vertex="1" parent="1">
          <mxGeometry x="550" y="170" width="100" height="100" as="geometry" />
        </mxCell>
        <mxCell id="3elFPOAeH255cSroFTTC-12" value="" style="endArrow=classic;html=1;rounded=0;exitX=1;exitY=0.5;exitDx=0;exitDy=0;entryX=0;entryY=0.5;entryDx=0;entryDy=0;" edge="1" parent="1" source="3elFPOAeH255cSroFTTC-1" target="3elFPOAeH255cSroFTTC-2">
          <mxGeometry width="50" height="50" relative="1" as="geometry">
            <mxPoint x="300" y="60" as="sourcePoint" />
            <mxPoint x="350" y="10" as="targetPoint" />
          </mxGeometry>
        </mxCell>
        <mxCell id="3elFPOAeH255cSroFTTC-13" value="" style="endArrow=classic;html=1;rounded=0;exitX=1;exitY=0.5;exitDx=0;exitDy=0;entryX=0;entryY=0.5;entryDx=0;entryDy=0;" edge="1" parent="1">
          <mxGeometry width="50" height="50" relative="1" as="geometry">
            <mxPoint x="330" y="59.5" as="sourcePoint" />
            <mxPoint x="390" y="59.5" as="targetPoint" />
          </mxGeometry>
        </mxCell>
        <mxCell id="3elFPOAeH255cSroFTTC-14" value="" style="endArrow=classic;html=1;rounded=0;exitX=1;exitY=0.5;exitDx=0;exitDy=0;entryX=0;entryY=0.5;entryDx=0;entryDy=0;" edge="1" parent="1">
          <mxGeometry width="50" height="50" relative="1" as="geometry">
            <mxPoint x="560" y="59.5" as="sourcePoint" />
            <mxPoint x="620" y="59.5" as="targetPoint" />
          </mxGeometry>
        </mxCell>
        <mxCell id="3elFPOAeH255cSroFTTC-15" value="" style="endArrow=classic;html=1;rounded=0;exitX=1;exitY=0.5;exitDx=0;exitDy=0;entryX=0;entryY=0.5;entryDx=0;entryDy=0;" edge="1" parent="1">
          <mxGeometry width="50" height="50" relative="1" as="geometry">
            <mxPoint x="170" y="219.5" as="sourcePoint" />
            <mxPoint x="230" y="219.5" as="targetPoint" />
          </mxGeometry>
        </mxCell>
        <mxCell id="3elFPOAeH255cSroFTTC-16" value="" style="endArrow=classic;html=1;rounded=0;exitX=1;exitY=0.5;exitDx=0;exitDy=0;entryX=0;entryY=0.5;entryDx=0;entryDy=0;" edge="1" parent="1">
          <mxGeometry width="50" height="50" relative="1" as="geometry">
            <mxPoint x="330" y="219.5" as="sourcePoint" />
            <mxPoint x="390" y="219.5" as="targetPoint" />
            <Array as="points">
              <mxPoint x="360" y="219.5" />
            </Array>
          </mxGeometry>
        </mxCell>
        <mxCell id="3elFPOAeH255cSroFTTC-17" value="" style="endArrow=classic;html=1;rounded=0;exitX=1;exitY=0.5;exitDx=0;exitDy=0;entryX=0;entryY=0.5;entryDx=0;entryDy=0;" edge="1" parent="1">
          <mxGeometry width="50" height="50" relative="1" as="geometry">
            <mxPoint x="490" y="219.5" as="sourcePoint" />
            <mxPoint x="550" y="219.5" as="targetPoint" />
          </mxGeometry>
        </mxCell>
        <mxCell id="3elFPOAeH255cSroFTTC-18" value="" style="endArrow=classic;html=1;rounded=0;exitX=0.5;exitY=1;exitDx=0;exitDy=0;entryX=0.5;entryY=0;entryDx=0;entryDy=0;" edge="1" parent="1" source="3elFPOAeH255cSroFTTC-4" target="3elFPOAeH255cSroFTTC-5">
          <mxGeometry width="50" height="50" relative="1" as="geometry">
            <mxPoint x="730" y="140" as="sourcePoint" />
            <mxPoint x="700" y="160" as="targetPoint" />
            <Array as="points">
              <mxPoint x="705" y="140" />
              <mxPoint x="90" y="140" />
            </Array>
          </mxGeometry>
        </mxCell>
      </root>
    </mxGraphModel>
  </diagram>
</mxfile>
